<svg width="127" height="31" viewBox="0 0 127 31" fill="none" xmlns="http://www.w3.org/2000/svg">
<path d="M0.789978 2.5904H11.207C14.361 2.5904 15.9381 4.02826 15.9381 6.90397V25.7704C15.9381 28.6461 14.361 30.084 11.207 30.084H0.789978V2.5904ZM10.9032 25.2475V7.42683C10.9032 6.96207 10.8164 6.65707 10.6427 6.51183C10.4691 6.33754 10.1508 6.2504 9.68785 6.2504H5.78147V26.424H9.68785C10.1508 26.424 10.4691 26.3514 10.6427 26.2061C10.8164 26.0318 10.9032 25.7123 10.9032 25.2475Z" fill="#F8F8F8"/>
<path d="M24.2408 8.6904H28.8417C31.9668 8.6904 33.5293 10.1283 33.5293 13.004V20.8033H24.2842V25.204C24.2842 25.6687 24.3566 25.9883 24.5012 26.1625C24.6749 26.3078 25.0076 26.3804 25.4995 26.3804H27.4961C27.9591 26.3804 28.2774 26.3078 28.451 26.1625C28.6247 25.9883 28.7115 25.6687 28.7115 25.204V23.5918H33.4859V25.7704C33.4859 28.6461 31.9089 30.084 28.7549 30.084H24.2408C21.0868 30.084 19.5098 28.6461 19.5098 25.7704V13.004C19.5098 10.1283 21.0868 8.6904 24.2408 8.6904ZM24.2842 17.6225H28.7983V13.5268C28.7983 13.0621 28.7115 12.7571 28.5378 12.6118C28.3642 12.4375 28.0459 12.3504 27.583 12.3504H25.4995C25.0366 12.3504 24.7183 12.4375 24.5447 12.6118C24.371 12.7571 24.2842 13.0621 24.2842 13.5268V17.6225Z" fill="#F8F8F8"/>
<path d="M50.2227 6.42468H41.9759V14.7904H48.7035V18.4504H41.9759V30.084H36.941V2.5904H50.2227V6.42468Z" fill="#F8F8F8"/>
<path d="M52.3617 5.20468V0.891113H57.5268V5.20468H52.3617ZM57.3966 30.084H52.4919V8.6904H57.3966V30.084Z" fill="#F8F8F8"/>
<path d="M60.7482 30.084V24.2018H66.0435V30.084H60.7482Z" fill="#F8F8F8"/>
<path d="M83.9447 11.0433H78.9098V7.42683C78.9098 6.96207 78.823 6.65707 78.6494 6.51183C78.4758 6.33754 78.1575 6.2504 77.6945 6.2504H75.6545C75.1915 6.2504 74.8732 6.33754 74.6996 6.51183C74.526 6.65707 74.4392 6.96207 74.4392 7.42683V25.2911C74.4392 25.7559 74.526 26.0754 74.6996 26.2497C74.8732 26.3949 75.1915 26.4675 75.6545 26.4675H77.6945C78.1575 26.4675 78.4758 26.3949 78.6494 26.2497C78.823 26.0754 78.9098 25.7559 78.9098 25.2911V19.1911H76.7396V15.6618H83.9447V25.814C83.9447 28.6897 82.3677 30.1275 79.2137 30.1275H74.1354C70.9813 30.1275 69.4043 28.6897 69.4043 25.814V6.90397C69.4043 4.02826 70.9813 2.5904 74.1354 2.5904H79.2137C82.3677 2.5904 83.9447 4.02826 83.9447 6.90397V11.0433Z" fill="#F8F8F8"/>
<path d="M91.8884 8.6904H96.7931C99.8603 8.6904 101.394 10.1283 101.394 13.004V25.7704C101.394 28.6461 99.8603 30.084 96.7931 30.084H91.8884C88.7922 30.084 87.2441 28.6461 87.2441 25.7704V13.004C87.2441 10.1283 88.7922 8.6904 91.8884 8.6904ZM96.576 25.204V13.5704C96.576 13.1056 96.4892 12.8006 96.3156 12.6554C96.142 12.4811 95.8092 12.394 95.3173 12.394H93.3207C92.8288 12.394 92.496 12.4811 92.3224 12.6554C92.1488 12.8006 92.062 13.1056 92.062 13.5704V25.204C92.062 25.6687 92.1488 25.9883 92.3224 26.1625C92.496 26.3078 92.8288 26.3804 93.3207 26.3804H95.3173C95.8092 26.3804 96.142 26.3078 96.3156 26.1625C96.4892 25.9883 96.576 25.6687 96.576 25.204Z" fill="#F8F8F8"/>
<path d="M109.829 30.084H104.925V0.934684H109.829V30.084Z" fill="#F8F8F8"/>
<path d="M122.035 0.934684H126.983V30.084H122.122V27.949C121.775 29.3723 120.748 30.084 119.04 30.084H117.695C114.743 30.084 113.268 28.6461 113.268 25.7704V12.9604C113.268 10.0847 114.743 8.64683 117.695 8.64683H119.04C120.603 8.64683 121.601 9.25683 122.035 10.4768V0.934684ZM119.388 26.2497H120.69C121.587 26.2497 122.035 25.7704 122.035 24.8118V13.9625C122.035 13.4106 121.934 13.033 121.732 12.8297C121.529 12.5973 121.182 12.4811 120.69 12.4811H119.388C118.925 12.4811 118.606 12.5683 118.433 12.7425C118.259 12.8878 118.172 13.1928 118.172 13.6575V25.0733C118.172 25.538 118.259 25.8575 118.433 26.0318C118.606 26.1771 118.925 26.2497 119.388 26.2497Z" fill="#F8F8F8"/>
</svg>
