<svg width="192" height="61" viewBox="0 0 192 61" fill="none" xmlns="http://www.w3.org/2000/svg">
<g clip-path="url(#clip0_1_1083)">
<path fill-rule="evenodd" clip-rule="evenodd" d="M25.4802 9.63496H0.567322V4.81738H25.4802C39.2392 4.81738 50.393 16.231 50.393 30.3104C50.393 44.3898 39.2392 55.8034 25.4802 55.8034H11.9448V41.5514H16.6528V50.9858H25.4802C36.639 50.9858 45.6851 41.7291 45.6851 30.3104C45.6851 18.8917 36.639 9.63496 25.4802 9.63496Z" fill="#EFB325"/>
<path fill-rule="evenodd" clip-rule="evenodd" d="M0.567322 16.6606H25.7406C29.6719 16.6606 33.3944 18.4299 35.8769 21.4782H5.27526V39.3293H26.1439C29.6323 39.3293 33.2332 36.421 34.0873 32.7192H11.9448V27.9016H39.0155V30.7747C39.0155 38.0615 33.2648 44.1326 26.1439 44.175H0.567322V16.6606Z" fill="#EFB325"/>
<path fill-rule="evenodd" clip-rule="evenodd" d="M11.9449 60.6213V55.8037H16.6528V60.6213H11.9449Z" fill="#EFB325"/>
<path fill-rule="evenodd" clip-rule="evenodd" d="M11.9449 4.81757V0H16.6528V4.81757H11.9449Z" fill="#EFB325"/>
<path fill-rule="evenodd" clip-rule="evenodd" d="M20.7723 60.6213V55.8037H25.4802V60.6213H20.7723Z" fill="#EFB325"/>
<path fill-rule="evenodd" clip-rule="evenodd" d="M20.7723 4.81757V0H25.4802V4.81757H20.7723Z" fill="#EFB325"/>
</g>
<path d="M63.79 16.5904H74.207C77.361 16.5904 78.9381 18.0283 78.9381 20.904V39.7704C78.9381 42.6461 77.361 44.084 74.207 44.084H63.79V16.5904ZM73.9032 39.2475V21.4268C73.9032 20.9621 73.8164 20.6571 73.6427 20.5118C73.4691 20.3375 73.1508 20.2504 72.6879 20.2504H68.7815V40.424H72.6879C73.1508 40.424 73.4691 40.3514 73.6427 40.2061C73.8164 40.0318 73.9032 39.7123 73.9032 39.2475Z" fill="#F8F8F8"/>
<path d="M87.2408 22.6904H91.8417C94.9668 22.6904 96.5293 24.1283 96.5293 27.004V34.8033H87.2842V39.204C87.2842 39.6687 87.3566 39.9883 87.5012 40.1625C87.6749 40.3078 88.0076 40.3804 88.4995 40.3804H90.4961C90.9591 40.3804 91.2774 40.3078 91.451 40.1625C91.6247 39.9883 91.7115 39.6687 91.7115 39.204V37.5918H96.4859V39.7704C96.4859 42.6461 94.9089 44.084 91.7549 44.084H87.2408C84.0868 44.084 82.5098 42.6461 82.5098 39.7704V27.004C82.5098 24.1283 84.0868 22.6904 87.2408 22.6904ZM87.2842 31.6225H91.7983V27.5268C91.7983 27.0621 91.7115 26.7571 91.5378 26.6118C91.3642 26.4375 91.0459 26.3504 90.583 26.3504H88.4995C88.0366 26.3504 87.7183 26.4375 87.5447 26.6118C87.371 26.7571 87.2842 27.0621 87.2842 27.5268V31.6225Z" fill="#F8F8F8"/>
<path d="M113.223 20.4247H104.976V28.7904H111.704V32.4504H104.976V44.084H99.941V16.5904H113.223V20.4247Z" fill="#F8F8F8"/>
<path d="M115.362 19.2047V14.8911H120.527V19.2047H115.362ZM120.397 44.084H115.492V22.6904H120.397V44.084Z" fill="#F8F8F8"/>
<path d="M123.748 44.084V38.2018H129.044V44.084H123.748Z" fill="#F8F8F8"/>
<path d="M146.945 25.0433H141.91V21.4268C141.91 20.9621 141.823 20.6571 141.649 20.5118C141.476 20.3375 141.157 20.2504 140.695 20.2504H138.655C138.192 20.2504 137.873 20.3375 137.7 20.5118C137.526 20.6571 137.439 20.9621 137.439 21.4268V39.2911C137.439 39.7559 137.526 40.0754 137.7 40.2497C137.873 40.3949 138.192 40.4675 138.655 40.4675H140.695C141.157 40.4675 141.476 40.3949 141.649 40.2497C141.823 40.0754 141.91 39.7559 141.91 39.2911V33.1911H139.74V29.6618H146.945V39.814C146.945 42.6897 145.368 44.1275 142.214 44.1275H137.135C133.981 44.1275 132.404 42.6897 132.404 39.814V20.904C132.404 18.0283 133.981 16.5904 137.135 16.5904H142.214C145.368 16.5904 146.945 18.0283 146.945 20.904V25.0433Z" fill="#F8F8F8"/>
<path d="M154.888 22.6904H159.793C162.86 22.6904 164.394 24.1283 164.394 27.004V39.7704C164.394 42.6461 162.86 44.084 159.793 44.084H154.888C151.792 44.084 150.244 42.6461 150.244 39.7704V27.004C150.244 24.1283 151.792 22.6904 154.888 22.6904ZM159.576 39.204V27.5704C159.576 27.1056 159.489 26.8006 159.316 26.6554C159.142 26.4811 158.809 26.394 158.317 26.394H156.321C155.829 26.394 155.496 26.4811 155.322 26.6554C155.149 26.8006 155.062 27.1056 155.062 27.5704V39.204C155.062 39.6687 155.149 39.9883 155.322 40.1625C155.496 40.3078 155.829 40.3804 156.321 40.3804H158.317C158.809 40.3804 159.142 40.3078 159.316 40.1625C159.489 39.9883 159.576 39.6687 159.576 39.204Z" fill="#F8F8F8"/>
<path d="M172.829 44.084H167.925V14.9347H172.829V44.084Z" fill="#F8F8F8"/>
<path d="M185.035 14.9347H189.983V44.084H185.122V41.949C184.775 43.3723 183.748 44.084 182.04 44.084H180.695C177.743 44.084 176.268 42.6461 176.268 39.7704V26.9604C176.268 24.0847 177.743 22.6468 180.695 22.6468H182.04C183.603 22.6468 184.601 23.2568 185.035 24.4768V14.9347ZM182.388 40.2497H183.69C184.587 40.2497 185.035 39.7704 185.035 38.8118V27.9625C185.035 27.4106 184.934 27.033 184.732 26.8297C184.529 26.5973 184.182 26.4811 183.69 26.4811H182.388C181.925 26.4811 181.606 26.5683 181.433 26.7425C181.259 26.8878 181.172 27.1928 181.172 27.6575V39.0733C181.172 39.538 181.259 39.8575 181.433 40.0318C181.606 40.1771 181.925 40.2497 182.388 40.2497Z" fill="#F8F8F8"/>
<defs>
<clipPath id="clip0_1_1083">
<rect width="50.5532" height="61" fill="white"/>
</clipPath>
</defs>
</svg>
